<svg xmlns="http://www.w3.org/2000/svg" viewBox="0 0 3000 600"><defs><style>.cls-1{fill:#fbb03b;}.cls-2{fill:#233d7d;}.cls-3{fill:#c1272d;}.cls-4{fill:#fff;}</style></defs><g id="Layer_4" data-name="Layer 4"><polygon class="cls-1" points="341.39 122.35 341.39 122.35 270.65 51.6 45.29 276.96 107.63 276.96 270.65 113.94 310.22 153.52 186.78 276.96 249.12 276.96 341.39 184.69 380.96 224.26 328.26 276.96 390.6 276.96 443.3 224.26 341.39 122.35"/><polygon class="cls-2" points="310.22 436.48 270.65 476.06 106.36 311.76 44.02 311.76 270.65 538.4 341.39 467.65 310.22 436.48"/><polygon class="cls-3" points="326.99 311.76 380.96 365.74 341.39 405.31 247.84 311.76 185.5 311.76 341.39 467.65 443.3 365.74 389.32 311.76 326.99 311.76"/><path class="cls-4" d="M685.43,254.91v-90.1q0-12.72.57-28l.25-7.57h-1q-2.62,19.38-4,26.83l-17.34,98.81H630.53l-18.16-97.67q-.74-3.66-3.86-28h-1q1.15,38.52,1.15,48.15v77.49H577.53V90.53H630.7l16.18,89.29q.58,2.76,1.52,11.18t1.2,13h.49q.9-10.42,2.88-24.64l15.12-88.84h52.34V254.91Z"/><path class="cls-4" d="M824.39,254.91l-5.18-30.27H784l-5.59,30.27H740.07l40.6-164.38h44.05l38.21,164.38ZM802,126.29h-.82q-.16,2.76-1.15,9.06t-9.94,54.1h22.52l-8.22-44.7Q802.7,134.9,802,126.29Z"/><path class="cls-4" d="M883.63,254.91V90.53h35.51V216.16h40.59v38.75Z"/><path class="cls-4" d="M981.59,254.91V90.53h35.5V216.16h40.6v38.75Z"/><path class="cls-4" d="M1229.51,144.75q0,16.84-6.12,29.92a46.71,46.71,0,0,1-17.46,20.23q-11.34,7.17-26.38,7.16H1168.7v52.85h-35.5V90.53h48.32q24.9,0,36.45,13.18T1229.51,144.75ZM1192,146.47q0-10.09-4.19-15.25c-2.8-3.44-6.9-5.16-12.33-5.16h-6.74v40.58h8Q1192,166.64,1192,146.47Z"/><path class="cls-4" d="M1250.47,254.91V90.53h73.38v38.74H1286v24h35.58V192H1286v24.18h40.6v38.75Z"/><path class="cls-4" d="M1350.23,254.91V90.53h35.5V216.16h40.6v38.75Z"/><path class="cls-4" d="M1522.06,254.91l-5.18-30.27h-35.17l-5.59,30.27h-38.37l40.59-164.38h44.05l38.21,164.38Zm-22.35-128.62h-.82q-.17,2.76-1.15,9.06t-10,54.1h22.52l-8.22-44.7Q1500.37,134.9,1499.71,126.29Z"/><path class="cls-4" d="M1641.55,197.82v57.09H1606v-56.4l-36.32-108h40.76l12.74,51.7a88,88,0,0,1,1.85,9.17c.36,2.6.75,5.23,1.19,7.91h.33a142.24,142.24,0,0,1,2.38-16.17l12.58-52.61h37.55Z"/><path class="cls-4" d="M1771.47,254.91l-5.18-30.27h-35.17l-5.59,30.27h-38.38l40.6-164.38h44L1810,254.91Zm-22.35-128.62h-.83q-.16,2.76-1.15,9.06t-9.94,54.1h22.52l-8.22-44.7Q1749.78,134.9,1749.12,126.29Z"/><path class="cls-4" d="M1913.06,254.91l-41.58-79.33q-4.93-9.39-8.06-17h-.33q.5,12.15.5,27.28v69h-32.87V90.53h33.52L1904.1,166c.49,1,1.1,2.18,1.81,3.56s1.42,2.79,2.13,4.24,1.39,2.87,2,4.24a31.05,31.05,0,0,1,1.44,3.67h.32q-.48-5-.49-17.42V90.53h32.87V254.91Z"/><path class="cls-4" d="M2048.16,254.91,2043,224.64h-35.17l-5.59,30.27h-38.38l40.6-164.38h44l38.21,164.38ZM2025.8,126.29H2025q-.17,2.76-1.15,9.06t-9.94,54.1h22.51l-8.21-44.7Q2026.47,134.9,2025.8,126.29Z"/><path class="cls-4" d="M2189.75,254.91l-41.59-79.33q-4.92-9.39-8-17h-.33q.49,12.15.49,27.28v69H2107.4V90.53h33.53L2180.79,166c.49,1,1.09,2.18,1.81,3.56s1.42,2.79,2.13,4.24,1.39,2.87,2,4.24a29.19,29.19,0,0,1,1.43,3.67h.33q-.5-5-.49-17.42V90.53h32.87V254.91Z"/><path class="cls-4" d="M2400.94,144.75q0,16.84-6.12,29.92a46.71,46.71,0,0,1-17.46,20.23q-11.36,7.17-26.38,7.16h-10.85v52.85h-35.5V90.53H2353q24.9,0,36.44,13.18T2400.94,144.75Zm-37.56,1.72q0-10.09-4.19-15.25t-12.32-5.16h-6.74v40.58h8Q2363.39,166.64,2363.38,146.47Z"/><path class="cls-4" d="M2524.62,179.82q0,39.56-12.95,58.75t-39.9,19.2q-25.14,0-38.17-19.2t-13-57.83V90.53h35.66v92.05q0,15.81,4.24,24.35t12.12,8.54q8,0,12.12-8t4.15-23.73V90.53h35.75Z"/><path class="cls-4" d="M2654,204.47q0,24.19-12.16,37.31t-34.76,13.13h-53.74V90.53h50q46.92,0,46.93,39.78a41,41,0,0,1-3,15.76,34.1,34.1,0,0,1-9,12.55,32.42,32.42,0,0,1-13.27,7.33v.46a30.94,30.94,0,0,1,15,6.94,37.11,37.11,0,0,1,10.27,13.87A42.8,42.8,0,0,1,2654,204.47Zm-41.41-65.57q0-15.24-17.18-15.24h-6.57v31.06h10.27a12.22,12.22,0,0,0,9.7-4.41Q2612.63,145.9,2612.63,138.9Zm3.69,65.34q0-7.11-3.69-11.69a12,12,0,0,0-9.78-4.59h-14v33.59h11.83q7.23,0,11.42-4.64T2616.32,204.24Z"/><path class="cls-4" d="M2676.56,254.91V90.53h35.5V216.16h40.59v38.75Z"/><path class="cls-4" d="M2774.51,254.91V90.53H2810V254.91Z"/><path class="cls-4" d="M2905.26,254.91l-26.14-69.47a95,95,0,0,1-3.12-11.35h-.41v80.82h-35.5V90.53h35.5v78.18h.41a109.71,109.71,0,0,1,3.53-11.47L2903,90.53h42.07l-33.45,78.41,36.66,86Z"/><path class="cls-4" d="M669.65,508.54H644.17l-41-53.24a29.36,29.36,0,0,1-2.8-4.05H600v57.29H580.48V392.16H600v54.7h.33a26.64,26.64,0,0,1,2.8-4l39.52-50.73h23.42L619.85,448Z"/><path class="cls-4" d="M839,508.54H817.55L807,478.92H760.6l-10.19,29.62H729.05l44.13-116.38h22Zm-37.23-45.36-16.35-46.43a55.18,55.18,0,0,1-1.56-7.3h-.33a46.9,46.9,0,0,1-1.64,7.3L765.7,463.18Z"/><path class="cls-4" d="M914.09,508.54V392.16h37.4q17.09,0,27.07,7.39t10,19.23A27.26,27.26,0,0,1,982.88,436a30.62,30.62,0,0,1-15.7,10.39v.32q12.17,1.38,19.44,8.89t7.27,19.52q0,14.92-11.92,24.18t-30.07,9.25Zm19.48-100.88v33.12h12.66q10.18,0,16-4.75T968,422.6q0-14.94-20.21-14.94Zm0,48.62v36.84h16.68q10.93,0,16.89-5t6-13.75q0-18.11-25.39-18.1Z"/><path class="cls-4" d="M1165.3,461.47q0,49-47,49-45,0-45-47.15V392.16h19.56v67.2q0,34.25,27,34.25,26,0,26-33V392.16h19.56Z"/><path class="cls-4" d="M1271.37,466.34v42.2H1251.9V392.16h35.74q20.31,0,31.48,9.34t11.18,26.29q0,17-11.67,27.76t-31.56,10.79Zm0-58.27V450.6H1284q12.57,0,19.15-5.77t6.57-16.23q0-20.53-24.16-20.53Z"/><path class="cls-4" d="M1494.39,508.54h-21.45l-10.6-29.62H1416l-10.19,29.62h-21.37l44.13-116.38h22Zm-37.23-45.36-16.35-46.43a53.58,53.58,0,0,1-1.56-7.3h-.33a45.62,45.62,0,0,1-1.65,7.3l-16.18,46.43Z"/><path class="cls-4" d="M1633.17,408.56h-33.86v100h-19.55v-100H1546v-16.4h87.19Z"/><path class="cls-4" d="M1775.49,508.54h-66.16V392.16h63.53v16.4h-44v32.95h40.52v16.31h-40.52v34.41h46.6Z"/><path class="cls-4" d="M1955.28,508.54h-21.37L1877.62,423a38,38,0,0,1-3.54-6.73h-.49q.66,3.74.66,16v76.29h-18.9V392.16h22.76l54.4,83.51q3.45,5.2,4.44,7.15h.33q-.83-4.63-.82-15.67v-75h18.82Z"/><path class="cls-4" d="M2148.53,508.54V392.16h37.39q17.09,0,27.08,7.39t10,19.23a27.26,27.26,0,0,1-5.67,17.21,30.64,30.64,0,0,1-15.69,10.39v.32q12.15,1.38,19.43,8.89t7.27,19.52q0,14.92-11.91,24.18t-30.08,9.25ZM2168,407.66v33.12h12.66q10.18,0,16-4.75t5.8-13.43q0-14.94-20.22-14.94Zm0,48.62v36.84h16.69q10.92,0,16.88-5t6-13.75q0-18.11-25.39-18.1Z"/><path class="cls-4" d="M2374.34,508.54h-65.25V392.16h19.56V492.23h45.69Z"/><path class="cls-4" d="M2470.31,508.54h-20.14V392.16h20.14Z"/><path class="cls-4" d="M2633.82,408.56H2600v100h-19.56v-100h-33.78v-16.4h87.19Z"/><path class="cls-4" d="M2794.55,508.54H2773.1l-10.6-29.62h-46.35L2706,508.54h-21.37l44.13-116.38h22Zm-37.23-45.36L2741,416.75a52.07,52.07,0,0,1-1.56-7.3h-.33a46.74,46.74,0,0,1-1.65,7.3l-16.19,46.43Z"/><path class="cls-4" d="M2960.7,508.54h-22.85L2919,477.38a66.08,66.08,0,0,0-5-7.35,29.92,29.92,0,0,0-4.93-5,16.71,16.71,0,0,0-5.47-2.84,23.17,23.17,0,0,0-6.65-.89h-7.89v47.23h-19.48V392.16h38.79a56.78,56.78,0,0,1,15.29,1.95,35.84,35.84,0,0,1,12.16,5.88,27.55,27.55,0,0,1,8.09,9.82,30.58,30.58,0,0,1,2.92,13.76,33.35,33.35,0,0,1-1.85,11.32,29.33,29.33,0,0,1-5.26,9.17,31.83,31.83,0,0,1-8.22,6.86,40.88,40.88,0,0,1-10.8,4.38v.33a30.68,30.68,0,0,1,5.58,3.93c1.59,1.44,3.1,2.91,4.52,4.43a52.27,52.27,0,0,1,4.24,5.15q2.08,2.88,4.64,6.7Zm-71.58-100.71v37.82h16.27a24.4,24.4,0,0,0,8.34-1.38,19.23,19.23,0,0,0,6.62-4,18,18,0,0,0,4.35-6.33,21.51,21.51,0,0,0,1.56-8.36q0-8.36-5.34-13.07t-15.37-4.7Z"/></g></svg>